<svg xmlns="http://www.w3.org/2000/svg" width="720" height="132" viewBox="0 0 720 132" font-family="-apple-system, 'SF Pro Text', 'Segoe UI', Helvetica, Arial, sans-serif">
<defs><linearGradient id="bg" x1="0" y1="0" x2="0" y2="1"><stop offset="0" stop-color="#2e2e30"/><stop offset="1" stop-color="#252527"/></linearGradient></defs>
<rect x="8" y="8" width="704" height="116" rx="22" fill="url(#bg)" stroke="#48484a" stroke-width="1"/>
  <rect x="28" y="30" width="72" height="72" rx="16" fill="#D97757"/>
  <g transform="translate(64,66)">
    <g fill="#faf5f0">
      <circle r="7"/>
      <g>
        <rect x="-2.6" y="-30" width="5.2" height="17" rx="2.6"/>
        <rect x="-2.6" y="-30" width="5.2" height="17" rx="2.6" transform="rotate(45)"/>
        <rect x="-2.6" y="-30" width="5.2" height="17" rx="2.6" transform="rotate(90)"/>
        <rect x="-2.6" y="-30" width="5.2" height="17" rx="2.6" transform="rotate(135)"/>
        <rect x="-2.6" y="-30" width="5.2" height="17" rx="2.6" transform="rotate(180)"/>
        <rect x="-2.6" y="-30" width="5.2" height="17" rx="2.6" transform="rotate(225)"/>
        <rect x="-2.6" y="-30" width="5.2" height="17" rx="2.6" transform="rotate(270)"/>
        <rect x="-2.6" y="-30" width="5.2" height="17" rx="2.6" transform="rotate(315)"/>
      </g>
    </g>
  </g>
<text x="122" y="52" font-size="19" font-weight="700" fill="#ffffff">❓ Input needed - Irish Rail</text>
<text x="122" y="82" font-size="17" fill="#c9c9cd">Asking which date range to use for the</text>
<text x="122" y="104" font-size="17" fill="#c9c9cd">timetable comparison.</text>
<text x="676" y="34" font-size="13" fill="#8e8e93" text-anchor="end">now</text>
</svg>